<svg xmlns="http://www.w3.org/2000/svg" viewBox="0 -0.5 30 30" shape-rendering="crispEdges">
<metadata>Made with Pixels to Svg https://codepen.io/shshaw/pen/XbxvNj</metadata>
<path stroke="#000000" d="M14 16h4M13 17h1M18 17h1M14 18h1M17 18h1M12 19h2M18 19h2M10 20h2M20 20h2M10 21h1M21 21h1M10 22h1M21 22h1M10 23h1M21 23h1M10 24h1M21 24h1M10 25h1M21 25h1M10 26h1M21 26h1M10 27h2M20 27h2M12 28h3M18 28h2M15 29h3" />
<path stroke="#f5c29b" d="M14 17h1" />
<path stroke="#e5aa7a" d="M15 17h2M15 18h1" />
<path stroke="#9c5a3c" d="M17 17h1M16 18h1M15 19h2" />
<path stroke="#ffffff" d="M14 19h1M17 19h1M12 20h1M15 20h1M18 20h2M11 21h3M18 21h1M14 22h4M20 22h1M15 23h2M15 24h2M20 24h1M11 25h1M15 25h1M20 25h1M11 26h1M15 26h1M20 26h1M12 27h1M15 27h1M19 27h1M15 28h3" />
<path stroke="#e0e0e0" d="M13 20h1M19 21h2M11 22h1M11 23h1M20 23h1M11 24h1M13 27h2M18 27h1" />
<path stroke="#ff7e00" d="M14 20h1M17 20h1M14 21h4M12 22h2M18 22h2M14 23h1M17 23h1" />
<path stroke="#b4b4b4" d="M16 20h1" />
<path stroke="#fff200" d="M12 23h2M18 23h2M12 24h3M17 24h3M12 25h3M16 25h4M12 26h3M16 26h4M16 27h2" />
</svg>